<?xml version="1.0" encoding="UTF-8" standalone="no"?>
<svg
   viewBox="0 0 640 640"
   version="1.1"
   id="svg1"
   sodipodi:docname="icone01.svg"
   inkscape:version="1.4.3 (0d15f75042, 2025-12-25)"
   xmlns:inkscape="http://www.inkscape.org/namespaces/inkscape"
   xmlns:sodipodi="http://sodipodi.sourceforge.net/DTD/sodipodi-0.dtd"
   xmlns="http://www.w3.org/2000/svg"
   xmlns:svg="http://www.w3.org/2000/svg">
  <defs
     id="defs1" />
  <sodipodi:namedview
     id="namedview1"
     pagecolor="#ffffff"
     bordercolor="#000000"
     borderopacity="0.25"
     inkscape:showpageshadow="2"
     inkscape:pageopacity="0.0"
     inkscape:pagecheckerboard="0"
     inkscape:deskcolor="#d1d1d1"
     showgrid="false"
     inkscape:zoom="0.62734375"
     inkscape:cx="435.96513"
     inkscape:cy="407.27273"
     inkscape:window-width="1920"
     inkscape:window-height="1011"
     inkscape:window-x="0"
     inkscape:window-y="32"
     inkscape:window-maximized="1"
     inkscape:current-layer="svg1" />
  <!--!Font Awesome Free v7.2.0 by @fontawesome - https://fontawesome.com License - https://fontawesome.com/license/free Copyright 2026 Fonticons, Inc.-->
  <path
     d="m 238.79025,461.11083 c -17.21354,0 -31.20868,-14.19938 -31.20868,-31.66412 V 271.12613 c 0,-17.46473 13.99514,-31.66411 31.20868,-31.66411 h 156.04341 c 17.21353,0 31.20867,14.19938 31.20867,31.66411 v 105.62951 c 0,8.41078 -3.26715,16.47524 -9.11878,22.41226 l -51.98196,52.69107 c -5.85163,5.93702 -13.80009,9.25186 -22.0899,9.25186 z m 158.7254,-87.07632 h -45.59393 c -6.48555,0 -11.70326,5.29385 -11.70326,11.87405 v 46.25929 z"
     id="path1"
     style="stroke-width:0.491181;fill:#4d4d4d" />
  <path
     d="m 110.74346,255.16687 c 0,-88.4 71.6,-159.999996 160,-159.999996 47.1,0 89.4,20.399996 118.7,52.699996 10.6,-3.1 21.80001,-4.7 33.30001,-4.7 66.3,0 120,53.7 120,120 0,13.2 -2.1,25.9 -6.1,37.8 41.6,21.1 70.1,64.3 70.1,114.2 0,70.7 -57.3,128 -128,128 H 174.74346 c -79.499998,0 -143.999998,-64.5 -143.999998,-144 0,-56.8 32.9,-105.9 80.699998,-129.4 -0.4,-4.8 -0.7,-9.7 -0.7,-14.6 z m 160,-112 c -61.9,0 -112,50.1 -112,112 0,8.4 0.9,16.6 2.7,24.5 2.7,12.1 -4.3,24.3 -16.1,28.1 -38.7,12.4 -66.599998,48.7 -66.599998,91.4 0,53 42.999998,96 95.999998,96 h 304.00001 c 44.2,0 80,-35.8 80,-80 0,-37.4 -25.7,-68.9 -60.5,-77.6 -7.5,-1.9 -13.6,-7.2 -16.5,-14.3 -2.9,-7.1 -2.1,-15.2 2,-21.7 7,-11.1 11,-24.2 11,-38.3 0,-39.8 -32.2,-72 -72,-72 -11.1,0 -21.5,2.5 -30.80001,6.9 -10.5,5 -23.1,1.7 -29.8,-7.8 -20.3,-28.6 -53.7,-47.1 -91.3,-47.1 z"
     id="path1-5"
     style="fill:#cccccc" />
</svg>
